<svg width="1280" height="334" viewBox="0 0 1280 334" fill="none" xmlns="http://www.w3.org/2000/svg">
<rect x="2.5" y="60.8154" width="51" height="51" stroke="#F19594"/>
<circle cx="3" cy="61.3154" r="3" fill="#C70E1A"/>
<circle cx="53" cy="61.3154" r="3" fill="#C70E1A"/>
<circle cx="3" cy="111.315" r="3" fill="#C70E1A"/>
<circle cx="53" cy="111.315" r="3" fill="#C70E1A"/>
<path d="M27.928 97.3154V79.2554H23.924V76.4554H31.204V97.3154H27.928Z" fill="#C70E1A"/>
<rect x="538.5" y="60.8154" width="51" height="51" stroke="#F19594"/>
<circle cx="539" cy="61.3154" r="3" fill="#C70E1A"/>
<circle cx="589" cy="61.3154" r="3" fill="#C70E1A"/>
<circle cx="539" cy="111.315" r="3" fill="#C70E1A"/>
<circle cx="589" cy="111.315" r="3" fill="#C70E1A"/>
<path d="M557.4 97.3154V94.9354L563.112 88.8314C564.232 87.6368 565.109 86.6754 565.744 85.9474C566.397 85.2008 566.864 84.5474 567.144 83.9874C567.443 83.4274 567.592 82.8394 567.592 82.2234C567.592 81.2154 567.284 80.4408 566.668 79.8994C566.052 79.3394 565.259 79.0594 564.288 79.0594C563.28 79.0594 562.412 79.3488 561.684 79.9274C560.956 80.4874 560.452 81.3088 560.172 82.3914L557.26 81.5514C557.484 80.4501 557.932 79.4981 558.604 78.6954C559.276 77.8741 560.097 77.2394 561.068 76.7914C562.057 76.3434 563.121 76.1194 564.26 76.1194C565.585 76.1194 566.743 76.3714 567.732 76.8754C568.721 77.3608 569.487 78.0421 570.028 78.9194C570.588 79.7968 570.868 80.8141 570.868 81.9714C570.868 82.7368 570.719 83.4834 570.42 84.2114C570.14 84.9208 569.701 85.6768 569.104 86.4794C568.507 87.2634 567.741 88.1501 566.808 89.1394L561.768 94.5154H571.26V97.3154H557.4Z" fill="#C70E1A"/>
<rect x="290.5" y="224.815" width="51" height="51" stroke="#F19594"/>
<circle cx="291" cy="225.315" r="3" fill="#C70E1A"/>
<circle cx="341" cy="225.315" r="3" fill="#C70E1A"/>
<circle cx="291" cy="275.315" r="3" fill="#C70E1A"/>
<circle cx="341" cy="275.315" r="3" fill="#C70E1A"/>
<path d="M316.204 261.651C315.084 261.651 314.029 261.446 313.04 261.035C312.069 260.625 311.229 260.046 310.52 259.299C309.829 258.553 309.335 257.675 309.036 256.667L311.836 255.603C312.209 256.593 312.779 257.358 313.544 257.899C314.309 258.441 315.196 258.711 316.204 258.711C317.025 258.711 317.735 258.553 318.332 258.235C318.948 257.918 319.424 257.47 319.76 256.891C320.115 256.313 320.292 255.613 320.292 254.791C320.292 253.989 320.115 253.298 319.76 252.719C319.424 252.141 318.948 251.702 318.332 251.403C317.735 251.105 317.025 250.955 316.204 250.955C315.868 250.955 315.523 250.983 315.168 251.039C314.832 251.095 314.533 251.17 314.272 251.263L313.544 249.723L319.032 243.255H310.156V240.455H322.728V243.115L317.352 249.555L317.268 248.491C318.519 248.51 319.62 248.79 320.572 249.331C321.524 249.854 322.261 250.582 322.784 251.515C323.325 252.43 323.596 253.494 323.596 254.707C323.596 256.014 323.279 257.199 322.644 258.263C322.009 259.309 321.132 260.139 320.012 260.755C318.911 261.353 317.641 261.651 316.204 261.651Z" fill="#C70E1A"/>
<rect x="826.5" y="224.815" width="51" height="51" stroke="#F19594"/>
<circle cx="827" cy="225.315" r="3" fill="#C70E1A"/>
<circle cx="877" cy="225.315" r="3" fill="#C70E1A"/>
<circle cx="827" cy="275.315" r="3" fill="#C70E1A"/>
<circle cx="877" cy="275.315" r="3" fill="#C70E1A"/>
<path d="M855.032 261.315V256.611H845.092V253.867L854.892 240.455H858.168V253.867H861.052V256.611H858.168V261.315H855.032ZM847.528 255.071L846.996 253.867H855.032V243.087L855.928 243.367L847.528 255.071Z" fill="#C70E1A"/>
<path d="M28 45.4553C28 5.92856 137.7 -9.68192 202.5 51.9597C267.3 113.601 331.559 55.0159 383.5 35.4485C426 19.4378 563.5 -40.1024 563.5 45.4553" stroke="#F19594" stroke-linecap="round" stroke-dasharray="16 16"/>
<path d="M568 98.9915C568 132.514 548.1 161.734 404.5 140.519C375.167 137.184 316.5 146.524 316.5 211.067" stroke="#F19594" stroke-linecap="round" stroke-dasharray="16 16"/>
<path d="M315 262.602C315 314.136 314.8 365.371 432 308.132C549.2 250.894 509.5 369.674 656.5 272.608C700.5 243.555 856 330.647 856 262.602" stroke="#F19594" stroke-linecap="round" stroke-dasharray="16 16"/>
</svg>
